# xmcd
#
# Track frame offsets:
#	150
#	30468
#	45050
#	59372
#	76468
#	96024
#	115299
#	131261
#	144241
#	161482
#
# Disc length: 2455 seconds
#
# Revision: 1
# Processed by: cddbd v1.4PL0 Copyright (c) Steve Scherf et al.
# Submitted via: audiograbber 1.81.01
#
DISCID=7009950a
DTITLE=Lee Anderson - Life on the fence
DYEAR=1900
DGENRE=Country
TTITLE0=Gospel According to Luke
TTITLE1=Hank Williams Shoes
TTITLE2=Split "Cha"
TTITLE3=Why was I so Wrong to love you so right
TTITLE4=B-Line
TTITLE5=Angel without wings
TTITLE6=The one that I Love
TTITLE7=Barroom Hardened Body
TTITLE8=Your arms Don't Hold Me
TTITLE9=Living to Love
EXTD=Promotional Album
EXTT0=
EXTT1=
EXTT2=
EXTT3=
EXTT4=
EXTT5=
EXTT6=
EXTT7=
EXTT8=
EXTT9=
PLAYORDER=
